<svg xmlns="http://www.w3.org/2000/svg" version="1.1" xmlns:xlink="http://www.w3.org/1999/xlink" xmlns:svgjs="http://svgjs.dev/svgjs" viewBox="0 0 800 800"><defs><linearGradient x1="50%" y1="0%" x2="50%" y2="100%" id="cccloud-grad"><stop stop-color="#fcfbf4" stop-opacity="1" offset="0%"></stop><stop stop-color="hsla(52, 57%, 97%, 0.20)" stop-opacity="1" offset="100%"></stop></linearGradient></defs><g fill="url(#cccloud-grad)" stroke-width="11" stroke="hsla(202, 36%, 45%, 0.00)" id="cloud"><path d="M 312.5581392185021 412.6744233240116 A  50 50 0 1 1 199.99999808960104 324.65115625154993 A  50 50 0 1 1 255.46511488171723 271.97674363237854 A  50 50 0 1 1 382.4418720314153 217.79069800290898 A  50 50 0 1 1 565.9302308971355 311.7441844909683 A  50 50 0 1 1 662.5581665039062 403.1395263671875 A  50 50 0 1 1 586.6279060539641 421.5116298843624 A  50 50 0 1 1 420.6976751568286 456.8604674627767 A  50 50 0 1 1 312.5581392185021 412.6744233240116 Z" stroke-linecap="round" stroke-linejoin="round"></path></g></svg>