<svg xmlns="http://www.w3.org/2000/svg" version="1.1" xmlns:xlink="http://www.w3.org/1999/xlink" xmlns:svgjs="http://svgjs.dev/svgjs" viewBox="0 0 800 800"><defs><linearGradient x1="50%" y1="0%" x2="50%" y2="100%" id="cccloud-grad"><stop stop-color="#fcfbf4" stop-opacity="1" offset="0%"></stop><stop stop-color="hsla(52, 57%, 97%, 0.20)" stop-opacity="1" offset="100%"></stop></linearGradient></defs><g fill="url(#cccloud-grad)" stroke-width="11" stroke="hsla(202, 36%, 45%, 0.00)" id="cloud"><path d="M 252.90697793061747 458.7209337918524 A  1 1 0 1 1 200 400 A  1 1 0 1 1 271.1627889048448 280.34883644471324 A  1 1 0 1 1 363.60465082004384 264.8837192955938 A  1 1 0 1 1 552.3255800770919 299.1860452724663 A  1 1 0 1 1 650 400 A  1 1 0 1 1 558.3720928123348 434.0697691028644 A  1 1 0 1 1 425.93023316453787 408.72093379185236 A  1 1 0 1 1 252.90697793061747 458.7209337918524 Z" stroke-linecap="round" stroke-linejoin="round"></path></g></svg>