<svg xmlns="http://www.w3.org/2000/svg" version="1.1" xmlns:xlink="http://www.w3.org/1999/xlink" xmlns:svgjs="http://svgjs.dev/svgjs" viewBox="0 0 800 800"><defs><linearGradient x1="50%" y1="0%" x2="50%" y2="100%" id="cccloud-grad"><stop stop-color="#fcfbf4" stop-opacity="1" offset="0%"></stop><stop stop-color="hsla(52, 57%, 97%, 0.20)" stop-opacity="1" offset="100%"></stop></linearGradient></defs><g fill="url(#cccloud-grad)" stroke-width="11" stroke="hsla(202, 36%, 45%, 0.00)" id="cloud"><path d="M 250.81395233474893 529.8837126623164 A  1 1 0 1 1 200 400 A  1 1 0 1 1 200 250 A  1 1 0 1 1 412.7906960925101 270.1162773033029 A  1 1 0 1 1 595.2325557403069 337.9069745295141 A  1 1 0 1 1 630.1162795707053 431.39534804625504 A  1 1 0 1 1 490.3487965249254 433.0232341185519 A  1 1 0 1 1 326.5116394555016 450.58139613120056 A  1 1 0 1 1 250.81395233474893 529.8837126623164 Z" stroke-linecap="round" stroke-linejoin="round"></path></g></svg>