<svg xmlns="http://www.w3.org/2000/svg" version="1.1" xmlns:xlink="http://www.w3.org/1999/xlink" xmlns:svgjs="http://svgjs.dev/svgjs" viewBox="0 0 800 800"><defs><linearGradient x1="50%" y1="0%" x2="50%" y2="100%" id="cccloud-grad"><stop stop-color="#fcfbf4" stop-opacity="1" offset="0%"></stop><stop stop-color="hsla(52, 57%, 97%, 0.20)" stop-opacity="1" offset="100%"></stop></linearGradient></defs><g fill="url(#cccloud-grad)" stroke-width="11" stroke="hsla(202, 36%, 45%, 0.00)" id="cloud"><path d="M 237.20930822981802 375.00001674949345 A  1 1 0 1 1 90.11629302533345 373.83720996145416 A  1 1 0 1 1 264.88371115246775 212.32559233532757 A  1 1 0 1 1 529.9999816971108 235.58138672899094 A  1 1 0 1 1 648.6046288652863 262.5581291022858 A  1 1 0 1 1 650 400 A  1 1 0 1 1 558.3720928123348 434.0697691028644 A  1 1 0 1 1 381.9767367483362 407.6744046014279 A  1 1 0 1 1 237.20930822981802 375.00001674949345 Z" stroke-linecap="round" stroke-linejoin="round"></path></g></svg>