<svg xmlns="http://www.w3.org/2000/svg" version="1.1" xmlns:xlink="http://www.w3.org/1999/xlink" xmlns:svgjs="http://svgjs.dev/svgjs" viewBox="0 0 800 800"><defs><linearGradient x1="50%" y1="0%" x2="50%" y2="100%" id="cccloud-grad"><stop stop-color="#fcfbf4" stop-opacity="1" offset="0%"></stop><stop stop-color="hsla(52, 57%, 97%, 0.20)" stop-opacity="1" offset="100%"></stop></linearGradient></defs><g fill="url(#cccloud-grad)" stroke-width="11" stroke="hsla(202, 36%, 45%, 0.00)" id="cloud"><path d="M 158.7209346939327 475.46514426559423 A  1 1 0 1 1 217.79072337791433 357.0930480957031 A  1 1 0 1 1 409.30229852253876 330.5814030152429 A  1 1 0 1 1 529.9999816971108 235.58138672899094 A  1 1 0 1 1 648.6046288652863 262.5581291022858 A  1 1 0 1 1 650 400 A  1 1 0 1 1 465.23253777527674 403.72092673888056 A  1 1 0 1 1 335.93020462004995 513.3720797147097 A  1 1 0 1 1 158.7209346939327 475.46514426559423 Z" stroke-linecap="round" stroke-linejoin="round"></path></g></svg>