<svg xmlns="http://www.w3.org/2000/svg" version="1.1" xmlns:xlink="http://www.w3.org/1999/xlink" xmlns:svgjs="http://svgjs.dev/svgjs" viewBox="0 0 800 800"><defs><linearGradient x1="50%" y1="0%" x2="50%" y2="100%" id="cccloud-grad"><stop stop-color="#fcfbf4" stop-opacity="1" offset="0%"></stop><stop stop-color="hsla(52, 57%, 97%, 0.20)" stop-opacity="1" offset="100%"></stop></linearGradient></defs><g fill="url(#cccloud-grad)" stroke-width="11" stroke="hsla(202, 36%, 45%, 0.00)" id="cloud"><path d="M 332.44185964779683 384.41861008238214 A  1 1 0 1 1 200 400 A  1 1 0 1 1 200 250 A  1 1 0 1 1 350 200 A  1 1 0 1 1 500 250 A  1 1 0 1 1 650 400 A  1 1 0 1 1 577.2093016400877 327.3255857455973 A  1 1 0 1 1 446.86046519537445 368.9534929332627 A  1 1 0 1 1 332.44185964779683 384.41861008238214 Z" stroke-linecap="round" stroke-linejoin="round"></path></g></svg>